<svg xmlns="http://www.w3.org/2000/svg" width="45" height="44" viewBox="0 0 45 44"><g><g><g><path d="M43.846 17.536c-.085.017-2.104.437-3.81.948-2.282.684-3.59 2.124-3.59 3.952v8.249h-5.778a2.59 2.59 0 0 0-2.588 2.587V44h1.411V33.272c0-.648.528-1.176 1.177-1.176h7.189v-9.66c0-1.588 1.62-2.31 2.585-2.6.98-.294 2.096-.562 2.841-.732v13.71a3.062 3.062 0 0 1-3.058 3.058h-7.814L31.391 44h1.4l.862-6.716h6.572a4.475 4.475 0 0 0 4.47-4.47V17.36z"/></g><g><path d="M43.297 13.05c0 1.583-1.29 2.87-2.875 2.87h-2.497v-2.352h-1.23l1.23-2.818v-.147a2.687 2.687 0 0 1 5.372 0v2.447zm-2.692-6.54a4.098 4.098 0 0 0-4.09 3.94l-1.975 4.53h1.971v2.352h3.906c2.36 0 4.281-1.921 4.281-4.282v-2.447a4.098 4.098 0 0 0-4.093-4.093z"/></g><g><path d="M14.027 30.685H8.25v-8.25c0-1.827-1.31-3.267-3.591-3.951-1.706-.511-3.725-.93-3.81-.948L0 17.36v15.454a4.475 4.475 0 0 0 4.47 4.47h6.572L11.904 44h1.4l-1.02-8.128H4.47a3.062 3.062 0 0 1-3.059-3.058v-13.71c.746.17 1.86.438 2.842.732.966.29 2.585 1.012 2.585 2.6v9.66h7.19c.648 0 1.175.528 1.175 1.176V44h1.412V33.272a2.59 2.59 0 0 0-2.588-2.587z"/></g><g><path d="M6.775 15.92H4.282a2.873 2.873 0 0 1-2.87-2.87v-2.447a2.685 2.685 0 0 1 2.681-2.682 2.685 2.685 0 0 1 2.682 2.682v.147l1.228 2.818H6.775zm1.41-5.47a4.098 4.098 0 0 0-4.091-3.94h-.001A4.098 4.098 0 0 0 0 10.603v2.447c0 2.361 1.92 4.282 4.282 4.282h3.905v-2.353h1.971z"/></g><g><path d="M12.001 26.353v-1.411h20.704v1.411zM10.59 23.53v4.235h9.904v16.232h1.412V27.765h1.411v16.232h1.412V27.765h9.386V23.53z"/></g><g><path d="M30.49 10.11v3.054H16.843v-2.35H27.95V6.082h-1.412v3.324h-9.693v-4.23H30.49v2.673l1.854 2.262zm1.41-2.763V3.764h-3.952V0H11.481v3.583L8.06 7.763h3.42v3.059h2.95V9.41h-1.538V6.352H11.04l1.853-2.265V1.41h13.645v2.353H15.433v10.822h16.468v-3.059h3.42z"/></g><g><g><path d="M17.69 18.45h1.411v1.411H17.69z"/></g><g><path d="M21.64 18.45h1.411v1.411H21.64z"/></g><g><path d="M25.6 18.45h1.411v1.411H25.6z"/></g></g></g></g></svg>