<svg xmlns="http://www.w3.org/2000/svg" width="34" height="40" viewBox="0 0 34 40"><g><g><g><path fill="#fff" d="M32.692 38.689H1.308V1.31h31.384zM0 0v40h34V0z"/></g><g><path fill="#fff" d="M29.414 13.772H4.578v-9.18h24.836zM30.732 3.28H3.27v11.803h27.462z"/></g><g><path fill="#fff" d="M9.808 24.917h-5.23v-5.246h5.23zm1.308-6.557H3.27v7.869h7.846z"/></g><g><path fill="#fff" d="M14.386 19.671h5.234v5.246h-5.234zM13.08 26.23h7.846V18.36H13.08z"/></g><g><path fill="#fff" d="M24.188 19.671h5.23v5.246h-5.23zM22.88 26.23h7.846V18.36H22.88z"/></g><g><path fill="#fff" d="M9.808 34.757h-5.23v-5.246h5.23zm1.308-6.557H3.27v7.869h7.846z"/></g><g><path fill="#fff" d="M14.386 29.511h5.234v5.246h-5.234zM13.08 36.07h7.846V28.2H13.08z"/></g><g><path fill="#fff" d="M24.188 29.511h5.23v5.246h-5.23zM22.88 36.07h7.846V28.2H22.88z"/></g><g><path fill="#fff" d="M25.493 11.809h-2.605v-5.25h2.605zm1.318-6.559H21.58v7.869h5.23z"/></g><g><path fill="#fff" d="M27.46 11.8h1.308v1.311H27.46z"/></g></g></g></svg>