<svg xmlns="http://www.w3.org/2000/svg" width="39" height="44" viewBox="0 0 39 44"><g><g><g><path d="M1.444 4.213h7.927v4.916a1.172 1.172 0 0 1-2.34 0v-2.81a.702.702 0 1 0-1.406 0v2.81a2.578 2.578 0 0 0 2.576 2.575 2.578 2.578 0 0 0 2.575-2.575V4.213h19.442V34.74h-7.164a.702.702 0 0 0-.702.702v7.164H1.444zM6.8 1.404c1 0 1.87.576 2.297 1.415H4.502a2.593 2.593 0 0 1 2.297-1.415zm16.95 40.193v-5.46h5.46zm7.602-5.616a.7.7 0 0 0 .262-.547V3.511a.702.702 0 0 0-.703-.702H10.597A3.986 3.986 0 0 0 6.794 0a4 4 0 0 0-3.802 2.809H.742a.702.702 0 0 0-.702.702v39.787c0 .388.314.702.702.702H23.04a.704.704 0 0 0 .553-.262z"/></g><g><path d="M25.286 32.344a.702.702 0 1 0 0-1.404H6.352a.702.702 0 1 0 0 1.404z"/></g><g><path d="M6.352 28.134h18.934a.702.702 0 1 0 0-1.404H6.352a.702.702 0 1 0 0 1.404z"/></g><g><path d="M6.352 23.914h18.934a.702.702 0 1 0 0-1.404H6.352a.702.702 0 1 0 0 1.404z"/></g><g><path d="M6.352 19.704h18.934a.702.702 0 1 0 0-1.404H6.352a.702.702 0 1 0 0 1.404z"/></g><g><path d="M6.352 15.494h18.934a.702.702 0 1 0 0-1.404H6.352a.702.702 0 1 0 0 1.404z"/></g><g><path d="M34.65 2.81h-.936a.702.702 0 1 0 0 1.404h.234v38.383h-7.496a.702.702 0 1 0 0 1.404h8.198a.702.702 0 0 0 .702-.702V3.512a.702.702 0 0 0-.702-.702z"/></g><g><path d="M38.398 2.81h-.936a.702.702 0 1 0 0 1.404h.234v38.383h-.234a.702.702 0 1 0 0 1.404h.936a.702.702 0 0 0 .702-.702V3.512a.702.702 0 0 0-.702-.702z"/></g></g></g></svg>