<svg xmlns="http://www.w3.org/2000/svg" width="47" height="44" viewBox="0 0 47 44"><g><g><g><path d="M33.854 35.404l-2.1 5.364A2.839 2.839 0 0 1 30.23 42.3a4.438 4.438 0 0 1-3.454-.482A56.104 56.104 0 0 1 2.013 17.09a5.088 5.088 0 0 1-.483-3.443 2.394 2.394 0 0 1 1.562-1.495l5.403-2.138c.382-.154.79-.238 1.201-.246a2.772 2.772 0 0 1 2.385 1.75l1.088 2.129c.52 1.022 1.003 2.535-.823 3.784l-2.186 1.447a.71.71 0 0 0-.199.946A49.888 49.888 0 0 0 24.07 33.947a.71.71 0 0 0 .946-.198l1.448-2.185a2.451 2.451 0 0 1 3.567-.946l2.309 1.21c1.022.55 2.29 1.523 1.514 3.576zm-.87-4.818l-2.328-1.23a3.87 3.87 0 0 0-5.394 1.42l-1.06 1.589a48.448 48.448 0 0 1-12.66-12.708l1.59-1.05c1.144-.776 2.838-2.546 1.296-5.593l-1.108-2.129c-1.637-3.028-4.05-2.659-5.346-2.157l-5.403 2.138a3.785 3.785 0 0 0-2.394 2.385 6.416 6.416 0 0 0 .596 4.551 57.464 57.464 0 0 0 25.36 25.34c.951.496 2.002.77 3.075.805a4.06 4.06 0 0 0 3.785-2.536v-.066l2.148-5.422c.492-1.297.86-3.71-2.158-5.337z"/></g><g><path d="M42.508 20.16a.71.71 0 0 0-.312.587v3.303l-2.535-2.318a.71.71 0 0 0-.483-.19h-.132c-.624.115-1.257.172-1.892.17a8.645 8.645 0 0 1-7.142-3.34 13.43 13.43 0 0 0 7.908-2.942 8.838 8.838 0 0 0 2.838-4.665c0-.2.085-.379.104-.55v-.113c2.658 1.013 4.37 3.132 4.37 5.432a5.678 5.678 0 0 1-2.724 4.627zm-13.097-3.235a11.995 11.995 0 0 1-2.157-.2.7.7 0 0 0-.606.171L23.3 19.962V15.6a.71.71 0 0 0-.312-.587A7.097 7.097 0 0 1 19.6 9.241c0-4.239 4.465-7.693 9.953-7.693 5.487 0 9.953 3.454 9.953 7.693-.004.446-.058.89-.161 1.325a8.043 8.043 0 0 1-2.488 3.88 11.654 11.654 0 0 1-7.446 2.479zM40.89 8.532C40.445 3.8 35.543.11 29.535.11 23.26.11 18.18 4.198 18.18 9.222a8.393 8.393 0 0 0 3.7 6.747v5.611a.71.71 0 0 0 1.192.52l4.286-3.917c.341.057.672.095 1.013.123 1.4 2.924 4.873 4.854 8.819 4.854.592 0 1.184-.044 1.77-.132l3.472 3.18a.71.71 0 0 0 1.192-.521v-4.542a7.002 7.002 0 0 0 3.028-5.611c0-3.057-2.3-5.82-5.762-7.002z"/></g></g></g></svg>