<svg xmlns="http://www.w3.org/2000/svg" width="40" height="40" viewBox="0 0 40 40"><g><g><g><path fill="#fff" d="M38.677 21.333H13.333v-1.526l12.672-4.434 12.672 4.434zm-1.354 1.99H14.667v-.656h22.656zM36 26h-4v-1.333h4zm-.677 6.677h-2.656v-5.344h2.656zM32 35.333V34h4v1.333zM37.323 38a.667.667 0 0 1-.666.667H15.333a.667.667 0 0 1-.666-.667v-1.333h22.656zM20 26h-4v-1.333h4zm-4 8h4v1.333h-4zm.667-6.667h2.656v5.344h-2.656zM28 26h-4v-1.333h4zm-4 8h4v1.333h-4zm.667-6.667h2.656v5.344h-2.656zm5.992-2.666v1.998c0 .368.298.666.664.666v5.328a.665.665 0 0 0-.664.666v1.998h-1.328v-1.998a.665.665 0 0 0-.664-.666v-5.328a.665.665 0 0 0 .664-.666v-1.998zm-8 0v1.998c0 .368.298.666.664.666v5.328a.665.665 0 0 0-.664.666v1.998h-1.328v-1.998a.665.665 0 0 0-.664-.666v-5.328a.665.665 0 0 0 .664-.666v-1.998zM1.333 35.333v-34h20.675V6c0 .368.299.667.667.667h4.002v7.526l-.447-.156a.667.667 0 0 0-.44 0L12.45 18.704a.666.666 0 0 0-.447.63V22c0 .368.299.667.667.667h.667V24c0 .368.299.667.667.667h.667v2c0 .368.299.666.667.666v5.334a.667.667 0 0 0-.667.666v2zm22-32.892l2.544 2.892h-2.544zm16.22 16.263L28 14.66V6a.667.667 0 0 0-.165-.439L23.17.228A.667.667 0 0 0 22.667 0h-22A.667.667 0 0 0 0 .667V36c0 .368.298.667.667.667h12.666V38a2 2 0 0 0 2 2h21.334a2 2 0 0 0 2-2v-2a.667.667 0 0 0-.667-.667h-.667v-2a.667.667 0 0 0-.666-.666v-5.334a.667.667 0 0 0 .666-.666v-2H38a.667.667 0 0 0 .667-.667v-1.333h.666A.667.667 0 0 0 40 22v-2.667a.666.666 0 0 0-.447-.629z"/></g><g><path fill="#fff" d="M26.677 18.675a.672.672 0 1 1-1.344 0 .672.672 0 0 1 1.344 0zM24 18.67a2 2 0 1 0 4 0 2 2 0 0 0-4 0z"/></g><g><path fill="#fff" d="M9.335 4.663a4.668 4.668 0 0 1 4.005 2.261 4.659 4.659 0 0 1 .118 4.595 3.3 3.3 0 0 0-1.897-1.389 2.665 2.665 0 0 0-.469-3.48 2.672 2.672 0 0 0-3.514 0 2.665 2.665 0 0 0-.469 3.48 3.3 3.3 0 0 0-1.897 1.39 4.658 4.658 0 0 1 .117-4.595 4.668 4.668 0 0 1 4.006-2.262zm-1.338 4A1.33 1.33 0 0 1 9.325 7.33a1.33 1.33 0 0 1 1.328 1.333 1.33 1.33 0 0 1-1.328 1.334 1.33 1.33 0 0 1-1.328-1.334zm-1.89 4.033a1.98 1.98 0 0 1 1.887-1.366h2.662a1.98 1.98 0 0 1 1.887 1.366 4.632 4.632 0 0 1-6.436 0zM9.33 15.33a6 6 0 1 0-6-6 6.007 6.007 0 0 0 6 6z"/></g><g><path fill="#fff" d="M20 8h1.333v1.333H20z"/></g><g><path fill="#fff" d="M22.67 8h2.667v1.333H22.67z"/></g><g><path fill="#fff" d="M20 10.67h5.333v1.333H20z"/></g><g><path fill="#fff" d="M2.67 16.67h2v1.333h-2z"/></g><g><path fill="#fff" d="M6 16.67h4.667v1.333H6z"/></g><g><path fill="#fff" d="M2.67 19.33h8v1.333h-8z"/></g><g><path fill="#fff" d="M2.67 22h8v1.333h-8z"/></g><g><path fill="#fff" d="M2.67 24.67h1.333v1.333H2.67z"/></g><g><path fill="#fff" d="M5.33 24.67h5.333v1.333H5.33z"/></g><g><path fill="#fff" d="M2.67 27.33h2.667v1.333H2.67z"/></g><g><path fill="#fff" d="M6.67 27.33h4v1.333h-4z"/></g></g></g></svg>