<svg xmlns="http://www.w3.org/2000/svg" width="40" height="33" viewBox="0 0 40 33"><g><g><g><path fill="#fff" d="M38.677 31.68H1.333V17.82h3.335v1.98c0 .729.597 1.32 1.333 1.32H8.67c.736 0 1.333-.591 1.333-1.32v-1.98h20.006v1.98c0 .729.597 1.32 1.333 1.32h2.668c.736 0 1.333-.591 1.333-1.32v-1.98h3.335zM6 14.52h2.667v5.28H6zm25.333 0H34v5.28h-2.667zm-30-6.6h37.344v8.58h-3.335v-1.98c0-.729-.597-1.32-1.333-1.32H31.34c-.736 0-1.333.591-1.333 1.32v1.98H10.002v-1.98c0-.729-.597-1.32-1.333-1.32H6c-.736 0-1.333.591-1.333 1.32v1.98H1.333zM14 1.98c0-.364.298-.66.667-.66h10.666c.369 0 .667.296.667.66V6.6H14zM27.333 6.6V1.98a1.99 1.99 0 0 0-2-1.98H14.667c-1.105 0-2 .887-2 1.98V6.6H0V33h40V6.6z"/></g></g></g></svg>