<svg xmlns="http://www.w3.org/2000/svg" width="40" height="39" viewBox="0 0 40 39"><g><g><g><path fill="#fff" d="M1.33 13.012L19.962 1.448l18.63 11.564V37.26H1.331zm38.593 24.914V12.642c0-.23-.12-.444-.315-.566L20.312.1a.667.667 0 0 0-.702 0L.315 12.076a.666.666 0 0 0-.315.566v25.284c0 .367.298.665.665.665h38.592a.666.666 0 0 0 .666-.665z"/></g><g><path fill="#fff" d="M19.957 3.327a.672.672 0 0 0-.352.1L3.345 13.522l-1.419-.88 18.03-11.193 18.028 11.193-1.416.88-16.26-10.095a.664.664 0 0 0-.351-.1zm16.97 11.544l2.681-1.663a.666.666 0 0 0 0-1.132L20.312.1a.667.667 0 0 0-.702 0L.315 12.076a.666.666 0 0 0 0 1.132l2.68 1.663a.667.667 0 0 0 .702 0L19.962 4.775l16.265 10.096a.664.664 0 0 0 .7 0z"/></g><g><path fill="#fff" d="M19.961 1.448l18.034 11.194-18.034 11.193L1.927 12.642zm.351 23.736l19.296-11.976a.666.666 0 0 0 0-1.132L20.312.1a.667.667 0 0 0-.702 0L.315 12.076a.666.666 0 0 0 0 1.132L19.61 25.184a.664.664 0 0 0 .702 0z"/></g><g><path fill="#fff" d="M19.961 25.424l17.16 11.844H2.802zm19.93 12.696a.666.666 0 0 0-.257-.745L20.338 24.067a.667.667 0 0 0-.755 0L.288 37.375a.666.666 0 0 0 .377 1.213h38.592c.291 0 .549-.19.635-.468z"/></g></g></g></svg>