<svg xmlns="http://www.w3.org/2000/svg" width="36" height="40" viewBox="0 0 36 40"><g><g><g><path fill="#fff" d="M16.39 8.52h10.492v1.311H16.39z"/></g><g><path fill="#fff" d="M16.39 11.8h10.492v1.311H16.39z"/></g><g><path fill="#fff" d="M3.28 17.05h11.148v1.311H3.28z"/></g><g><path fill="#fff" d="M3.28 20.33h8.525v1.311H3.28z"/></g><g><path fill="#fff" d="M13.126 13.117H4.591V7.871h8.535zm1.302-6.557H3.28v7.869h11.148z"/></g><g><path fill="#fff" d="M30.164 36.066c-.21.15-.42.302-.643.44-.118.072-.236.144-.361.215a9.09 9.09 0 0 1-1.37.656 9.84 9.84 0 0 1-9.43-1.311 6.59 6.59 0 0 1-.432-.349 9.833 9.833 0 0 1-2.902-10.891 9.838 9.838 0 0 1 9.236-6.465 9.667 9.667 0 0 1 4.59 1.134l.039.021a9.828 9.828 0 0 1 5.18 7.925 9.84 9.84 0 0 1-3.907 8.625zm-28.853.01V4.59a3.28 3.28 0 0 1 5.6-2.316c.481.477.799 1.097.904 1.765l.092.551h20.945v13.454a11.14 11.14 0 0 0-13.757 3.81 11.148 11.148 0 0 0 1.278 14.22zm26.23-34.764a3.306 3.306 0 0 1 3.01 1.967H8.988A4.383 4.383 0 0 0 7.836 1.35c-.016-.013-.031-.028-.047-.038zm2.623 17.43V4.59h2.018l-.117-.76a4.474 4.474 0 0 0-1.279-2.48A4.53 4.53 0 0 0 27.541 0H4.591A4.594 4.594 0 0 0 0 4.59v32.787h17.94a11.14 11.14 0 0 0 11.289.848 11.146 11.146 0 0 0 .935-19.483z"/></g><g><path fill="#fff" d="M27.969 33.762l-3.711-3.71-3.71 3.71-1.857-1.855 3.71-3.712-3.71-3.711 1.856-1.855 3.711 3.712 3.71-3.712 1.855 1.855-3.71 3.711 3.71 3.712zm-.007-5.567l3.711-3.711-3.703-3.704-3.712 3.712-3.712-3.712-3.706 3.704 3.712 3.711-3.712 3.712 3.706 3.704 3.712-3.712 3.712 3.712 3.703-3.704z"/></g><g><path fill="#fff" d="M3.28 23.61h8.525v1.311H3.28z"/></g></g></g></svg>