<svg xmlns="http://www.w3.org/2000/svg" width="65" height="65" viewBox="0 0 65 65"><g><g><path fill="#006cfc" d="M56.042 35.607a.62.62 0 0 0-.411.577c-.082.247.082.494.247.741l4.848 4.86-6.82.989a.618.618 0 0 0-.576.412 1.146 1.146 0 0 0 0 .741l3.123 6.096-6.738-1.07c-.247-.083-.493.081-.74.246-.164.165-.247.494-.247.742l1.15 6.754-6.08-3.13a1.138 1.138 0 0 0-.74 0 .62.62 0 0 0-.41.577l-.986 6.837-4.849-4.86c-.164-.165-.41-.247-.74-.247-.246.082-.492.247-.574.412l-3.04 6.178-3.041-6.178a.618.618 0 0 0-.575-.412h-.165a.745.745 0 0 0-.575.247l-4.848 4.86-.986-6.837a.62.62 0 0 0-.411-.577 1.138 1.138 0 0 0-.74 0l-6.08 3.13 1.15-6.754c.082-.248-.082-.495-.246-.742-.33-.165-.576-.247-.904-.247l-6.739 1.153 3.123-6.095a1.146 1.146 0 0 0 0-.742.618.618 0 0 0-.575-.412l-6.82-.988 4.848-4.86c.164-.165.246-.412.246-.742-.082-.247-.246-.494-.41-.576l-6.164-3.048 6.163-3.048a.62.62 0 0 0 .411-.577c.082-.247-.082-.494-.246-.741l-4.849-4.86 6.82-.99a.618.618 0 0 0 .576-.41 1.146 1.146 0 0 0 0-.742l-3.123-6.096 6.739 1.153c.246.082.493-.082.74-.247.164-.165.246-.494.246-.741l-1.15-6.755 6.08 3.13c.247.082.493.082.74 0a.62.62 0 0 0 .41-.577l.987-6.837 4.848 4.86c.164.165.493.247.74.247.246-.082.492-.247.575-.411l3.04-6.179L35.334 9a.618.618 0 0 0 .576.411c.246.083.493-.082.74-.247l4.847-4.86.986 6.837a.62.62 0 0 0 .411.577c.247.082.493.082.74 0l6.08-3.13-.903 6.59c-.083.247.082.494.246.741.165.165.493.247.74.247l6.738-1.153-3.123 6.096a1.146 1.146 0 0 0 0 .741.618.618 0 0 0 .576.412l6.82.989-4.848 4.86c-.165.165-.247.412-.247.741.082.247.247.495.411.577l6.163 3.048zm8.382-3.79l-6.574-3.294 5.259-5.19c.246-.247.328-.577.164-.824-.082-.33-.329-.494-.657-.576l-7.232-1.071 3.37-6.508c.164-.247.082-.577-.083-.824a.78.78 0 0 0-.821-.33l-7.232 1.236 1.233-7.249c.082-.33-.082-.576-.329-.823-.246-.165-.575-.248-.821-.083L44.209 9.66l-1.233-7.414c-.082-.33-.246-.577-.575-.66-.329-.082-.657 0-.822.165l-5.176 5.273-3.287-6.59c-.247-.577-1.15-.577-1.48 0l-3.286 6.59-5.095-5.19c-.247-.247-.575-.33-.822-.165-.329.082-.493.33-.575.66L20.79 9.575 14.216 6.2c-.247-.165-.575-.083-.822.082a.784.784 0 0 0-.329.824l1.233 7.25-7.231-1.237c-.329-.082-.575.083-.822.33-.164.247-.246.577-.082.824l3.369 6.507-7.231 1.071c-.329.083-.575.247-.658.577-.082.33 0 .659.165.824l5.259 5.19-6.574 3.294c-.246.165-.493.412-.493.742s.164.576.493.741l6.574 3.295-5.26 5.19c-.246.247-.328.577-.164.824.083.33.33.494.658.576l7.231 1.071-3.369 6.508c-.164.247-.082.577.082.824a.78.78 0 0 0 .822.33l7.231-1.236-1.233 7.249c-.082.33.083.576.33.823.246.165.574.248.82.083l6.493-3.378 1.068 7.25c.082.329.246.576.575.659.329.082.657 0 .822-.165l5.177-5.272 3.287 6.59c.164.247.41.494.74.494.328 0 .574-.165.739-.494l3.287-6.59 5.176 5.272c.247.247.576.33.822.165.329-.083.493-.33.575-.66l1.069-7.249 6.491 3.378c.247.165.576.082.822-.083a.784.784 0 0 0 .329-.823l-1.233-7.25 7.231 1.236a.78.78 0 0 0 .822-.33c.164-.246.247-.576.082-.823l-3.369-6.508 7.231-1.07c.33-.083.576-.248.658-.577.082-.33 0-.66-.165-.824l-5.094-5.107 6.574-3.295c.246-.165.493-.412.493-.742-.083-.33-.247-.576-.493-.741z"/></g><g><path fill="#006cfc" d="M26.956 40.143a3.155 3.155 0 0 1-1.069 2.06c-.576.495-1.398.824-2.22.742-1.644-.165-2.878-1.566-2.795-3.297.082-1.566 1.48-2.802 3.042-2.802h.246c1.645.165 2.878 1.566 2.796 3.297zM24.242 35.2c-2.547-.165-4.848 1.73-5.012 4.284-.164 2.553 1.726 4.86 4.273 5.024h.329c1.15 0 2.218-.411 3.04-1.153.986-.824 1.48-1.977 1.643-3.212.247-2.472-1.725-4.696-4.272-4.943z"/></g><g><path fill="#006cfc" d="M43.385 25.97c-.165 1.648-1.644 2.883-3.287 2.801-.822-.082-1.562-.412-2.055-1.07-.493-.578-.821-1.401-.74-2.225.165-1.648 1.562-2.883 3.288-2.8.821.082 1.561.411 2.054 1.07.493.577.822 1.4.74 2.224zm.493-3.295a4.779 4.779 0 0 0-3.205-1.565c-2.548-.165-4.848 1.73-5.013 4.284-.082 1.235.329 2.47 1.15 3.377.822.988 1.973 1.483 3.205 1.647h.33c2.382 0 4.436-1.894 4.683-4.365.082-1.236-.329-2.472-1.15-3.378z"/></g><g><path fill="#006cfc" d="M42.233 43.843l-19.721-22.9c-.329-.33-.822-.413-1.15-.083-.33.33-.411.824-.083 1.153l19.64 22.9c.164.165.41.248.657.248.164 0 .41-.083.575-.165.329-.33.411-.824.082-1.153z"/></g></g></svg>