<svg xmlns="http://www.w3.org/2000/svg" width="15" height="15" viewBox="0 0 15 15"><g><g><path fill="#fff" d="M0 1.786C0 .799.8 0 1.786 0h2.361c.873 0 1.618.631 1.761 1.492l.33 1.978A1.679 1.679 0 0 1 5.113 5.34l-.43.143a.357.357 0 0 0-.232.433l.448 1.642c.247.906.93 1.629 1.821 1.926l1.09.363c.152.05.32-.007.41-.14l.52-.782a1.786 1.786 0 0 1 2.05-.703l2.275.757c.729.243 1.22.926 1.22 1.695v1.832c0 .986-.799 1.785-1.785 1.785h-1.429C4.957 14.29 0 9.334 0 3.22zm.714 0v1.435c0 5.724 4.637 10.365 10.357 10.365H12.5c.592 0 1.071-.48 1.071-1.072V10.68c0-.461-.295-.871-.732-1.017l-2.274-.758a1.071 1.071 0 0 0-1.23.422l-.52.782a1.071 1.071 0 0 1-1.231.422l-1.09-.363A3.524 3.524 0 0 1 4.21 7.75l-.448-1.644c-.15-.549.155-1.12.695-1.3l.43-.143a.965.965 0 0 0 .646-1.074l-.33-1.98A1.072 1.072 0 0 0 4.148.714H1.786c-.592 0-1.072.48-1.072 1.073z"/></g></g></svg>