<svg xmlns="http://www.w3.org/2000/svg" width="45" height="44" viewBox="0 0 45 44"><g><g><g><path d="M37.013 13.459L28.755 7.45a.683.683 0 0 0-.955.151.686.686 0 0 0 .152.957l8.258 6.008a.68.68 0 0 0 .955-.152.685.685 0 0 0-.152-.956z"/></g><g><path d="M16.668 10.178a.683.683 0 0 0-.782-.57l-10.08 1.603a.685.685 0 0 0 .215 1.353L16.1 10.96a.684.684 0 0 0 .568-.783z"/></g><g><path d="M33.069 25.196a8.686 8.686 0 0 0-4.001-5.03v-3.57l3.715 2.702a.68.68 0 0 0 .954-.152.686.686 0 0 0-.151-.956l-4.518-3.287v-1.051a.684.684 0 0 0-.684-.685h-1.702l-1.354-.985a.683.683 0 0 0-.932.985h-4.343l1.082-1.493L28.39 1.661l14.23 10.353zm-3.143 7.73c-.545.547-1.169 1.001-1.853 1.352a7.244 7.244 0 0 1-3.334.8 7.309 7.309 0 0 1-6.535-4.008 7.28 7.28 0 0 1-.8-3.34c0-.68.093-1.354.278-2.005a7.29 7.29 0 0 1 1.434-2.715 7.316 7.316 0 0 1 5.623-2.63c1.173 0 2.295.27 3.334.802a7.325 7.325 0 0 1 4.002 6.547 7.309 7.309 0 0 1-2.149 5.197zM10.114 36.54V14.537H27.7v4.992a8.604 8.604 0 0 0-3.53-.5.686.686 0 0 0-.16-.019H13.805a.684.684 0 0 0 0 1.37h6.251a8.732 8.732 0 0 0-3.532 4.474h-2.72a.684.684 0 0 0 0 1.37h2.364a8.758 8.758 0 0 0 .386 4.473h-2.749a.684.684 0 0 0 0 1.37h3.385a8.664 8.664 0 0 0 7.55 4.382 8.612 8.612 0 0 0 2.96-.518v.609zm-1.37-22.688v2.806l-2.023.322a.685.685 0 0 0 .214 1.352l1.809-.287v4.53l-1.11.176a.685.685 0 0 0 .215 1.352l.895-.142v4.53l-3.839.61-3.44-21.73 17.36-2.762 1.028 6.49-1.498 2.068H9.427a.684.684 0 0 0-.683.685zm25.347 22.15l5.219 5.229-1.095 1.097-5.22-5.229zm9.887-24.694L28.64.151a.681.681 0 0 0-.954.151l-6.689 9.23-.92-5.814a.685.685 0 0 0-.783-.57L.576 6.126a.685.685 0 0 0-.567.783l3.655 23.084a.686.686 0 0 0 .782.57l4.302-.685v7.347c0 .379.306.685.683.685h18.953a.684.684 0 0 0 .684-.685v-1.93c.469-.27.911-.582 1.323-.934l1.702 1.706-.547.549a.686.686 0 0 0 0 .968l6.185 6.198a.68.68 0 0 0 .967 0l2.062-2.066a.685.685 0 0 0 0-.968l-6.186-6.198a.683.683 0 0 0-.966 0l-.548.549-1.703-1.706a8.664 8.664 0 0 0 2.058-6.342l10.714-14.785a.685.685 0 0 0-.151-.957z"/></g><g><path d="M24.736 32.155a4.428 4.428 0 0 1 0-8.855 4.428 4.428 0 0 1 0 8.855zm0-10.225c-3.19 0-5.786 2.6-5.786 5.798 0 3.196 2.596 5.797 5.786 5.797 3.19 0 5.786-2.6 5.786-5.797 0-3.197-2.595-5.798-5.786-5.798z"/></g><g><path d="M26.68 27.61a.683.683 0 0 0-.967 0l-1.823 1.827a.686.686 0 0 0 .483 1.168.68.68 0 0 0 .484-.2l1.822-1.826a.686.686 0 0 0 0-.968z"/></g><g><path d="M25.951 24.69a.683.683 0 0 0-.966 0L22.98 26.7a.686.686 0 0 0 .483 1.168.68.68 0 0 0 .484-.2l2.004-2.01a.686.686 0 0 0 0-.967z"/></g></g></g></svg>