<svg xmlns="http://www.w3.org/2000/svg" width="32" height="44" viewBox="0 0 32 44"><g><g><g><path d="M1.446 42.634V5.01h6.65V6.56H3.679a.683.683 0 0 0-.683.683v33.524c0 .377.306.683.683.683h17.855a.704.704 0 0 0 .068-.003l.03-.005.036-.005.034-.008.03-.008.033-.012.03-.01.03-.015.031-.015.028-.016.03-.018.029-.022.024-.018a.662.662 0 0 0 .047-.042l.003-.003 6.924-6.923.002-.003a.691.691 0 0 0 .043-.047l.018-.025.022-.03.018-.029.016-.027c.006-.01.01-.021.015-.032l.014-.029.011-.031.011-.032c.004-.01.006-.021.008-.032l.009-.033.005-.037.004-.03a.686.686 0 0 0 .004-.067v-26.6a.683.683 0 0 0-.683-.683h-4.419V5.01h6.65v37.624zm25.361-8.108l-4.59 4.59v-4.59zM8.78 10.476h14.575a.683.683 0 0 0 .684-.684V7.925h3.735v25.227h-6.24a.683.683 0 0 0-.684.683v6.238H4.362V7.925h3.735v1.867c0 .378.305.683.683.683zm.683-5.466h2.303l.045-.002.023-.002a.675.675 0 0 0 .044-.007l.024-.004a.701.701 0 0 0 .04-.01l.025-.008.037-.014.026-.01.033-.016.026-.013a.609.609 0 0 0 .032-.02l.023-.015.032-.023a.515.515 0 0 0 .05-.044l.018-.017.028-.03.015-.019a.622.622 0 0 0 .025-.033l.015-.02a.632.632 0 0 0 .02-.033l.014-.025.015-.031.014-.031a.757.757 0 0 0 .022-.066l.007-.026a.77.77 0 0 0 .009-.04l.002-.011a3.675 3.675 0 0 1 3.637-3.074 3.675 3.675 0 0 1 3.638 3.074l.002.011a.614.614 0 0 0 .036.126.76.76 0 0 0 .027.06l.012.023a.623.623 0 0 0 .022.035l.011.018a.672.672 0 0 0 .028.038l.01.013a.67.67 0 0 0 .088.088l.02.015.03.022.025.016.027.017a.634.634 0 0 0 .116.052l.028.008a.678.678 0 0 0 .037.01l.024.005a.69.69 0 0 0 .048.008l.015.002a.68.68 0 0 0 .067.003h2.294v4.1H9.463zm21.909-1.366h-10.45A5.036 5.036 0 0 0 16.068 0a5.036 5.036 0 0 0-4.855 3.644H.763a.683.683 0 0 0-.683.683v38.99c0 .377.306.683.683.683h30.609a.683.683 0 0 0 .683-.683V4.327a.683.683 0 0 0-.683-.683z"/></g><g><path d="M16.065 29.143c-4.041 0-7.329-3.287-7.329-7.328s3.288-7.329 7.329-7.329c4.04 0 7.328 3.288 7.328 7.329 0 4.04-3.287 7.328-7.328 7.328zm.005-16.023c-4.797 0-8.7 3.903-8.7 8.7 0 4.797 3.903 8.7 8.7 8.7 4.797 0 8.7-3.903 8.7-8.7 0-4.797-3.903-8.7-8.7-8.7z"/></g><g><path d="M20.2 18.24a.683.683 0 0 0-.967 0l-5.893 5.894-1.704-1.703a.683.683 0 0 0-.966.966l2.186 2.186a.681.681 0 0 0 .967 0l6.376-6.377a.683.683 0 0 0 0-.966z"/></g></g></g></svg>