<svg xmlns="http://www.w3.org/2000/svg" width="33" height="40" viewBox="0 0 33 40"><g><g><g><path fill="#fff" d="M15.07 38.312C12.563 35.388 1.31 21.88 1.31 15.07c0-7.6 6.16-13.76 13.76-13.76 7.599 0 13.759 6.16 13.759 13.76 0 1.723-.745 4.048-2.211 6.908l1.165.598c1.563-3.048 2.356-5.573 2.356-7.506C30.14 6.747 23.392 0 15.07 0 6.748 0 0 6.747 0 15.07c0 8.116 13.984 24.004 14.579 24.677a.655.655 0 0 0 .983 0c.016-.02 1.737-1.966 3.956-4.793l-1.032-.81a126.991 126.991 0 0 1-3.416 4.168z"/></g><g><path fill="#fff" d="M15.068 22.936a8.518 8.518 0 0 1-8.518-8.518 8.518 8.518 0 1 1 17.036 0 8.528 8.528 0 0 1-8.518 8.518zm0-18.346c-5.428 0-9.828 4.4-9.828 9.828 0 5.428 4.4 9.828 9.828 9.828 5.428 0 9.828-4.4 9.828-9.828-.006-5.425-4.403-9.822-9.828-9.828z"/></g><g><path fill="#fff" d="M13.76 13.76h2.621v1.31H13.76z"/></g><g><path fill="#fff" d="M17.04 13.76h1.31v1.31h-1.31z"/></g><g><path fill="#fff" d="M11.79 13.76h1.31v1.31h-1.31z"/></g><g><path fill="#fff" d="M25.557 36.033a5.896 5.896 0 1 1 0-11.792 5.896 5.896 0 0 1 5.897 5.896 5.903 5.903 0 0 1-5.897 5.896zm0-13.103a7.207 7.207 0 1 0 7.207 7.207 7.216 7.216 0 0 0-7.207-7.207z"/></g><g><path fill="#fff" d="M28.362 26.4l-2.813 2.813-2.813-2.813-.926.926 2.813 2.813-2.813 2.813.926.927 2.813-2.813 2.813 2.813.926-.927-2.813-2.813 2.813-2.813z"/></g></g></g></svg>