<svg xmlns="http://www.w3.org/2000/svg" width="16" height="16" viewBox="0 0 16 16"><g><g><path d="M14.283 7.253c.045.364-.087.911.418.921.527.01.4-.529.405-.892.044-3.708-3.1-7.145-6.752-7.271-.275.04-.846-.196-.881.44-.024.427.456.357.771.407 3.802.6 5.555 2.459 6.04 6.395zm-6.23-5.017c-.089.548.448.492.794.572 2.345.539 3.161 1.418 3.547 3.812.056.349-.056.892.52.802.428-.067.274-.532.31-.804.018-2.3-1.895-4.392-4.238-4.681-.365-.045-.848-.223-.933.3zm.575 1.882c-.134.4.149.497.437.544.962.16 1.468.743 1.564 1.73.026.268.192.486.443.455.349-.043.38-.362.37-.665.017-1.11-1.202-2.392-2.24-2.365-.245.006-.484.033-.574.301zm5.438 7.46c-.474-.393-.98-.745-1.479-1.105-.994-.72-1.904-.775-2.646.382-.416.649-1 .677-1.61.393-1.681-.785-2.98-1.994-3.74-3.754-.336-.778-.332-1.476.455-2.026.417-.291.837-.636.803-1.272-.044-.83-2-3.601-2.772-3.894a1.368 1.368 0 0 0-.964 0C.302.928-.449 2.461.27 4.277c2.144 5.418 5.916 9.19 11.11 11.491.296.131.625.184.791.23 1.183.013 2.568-1.16 2.968-2.323.385-1.12-.43-1.564-1.073-2.098z"/></g></g></svg>