<svg xmlns="http://www.w3.org/2000/svg" width="16" height="16" viewBox="0 0 16 16"><g><g><path d="M7.998 0h.004C12.412 0 16 3.59 16 8s-3.587 8-7.998 8a7.937 7.937 0 0 1-4.4-1.321l-3.076.982.997-2.972A7.941 7.941 0 0 1 0 7.999C0 3.59 3.587 0 7.998 0zM5.767 4.064c-.155-.372-.273-.386-.508-.396a4.54 4.54 0 0 0-.269-.009c-.306 0-.626.09-.819.287-.235.24-.819.8-.819 1.947 0 1.148.838 2.258.95 2.413.119.155 1.634 2.544 3.988 3.518 1.84.762 2.386.691 2.805.602.612-.132 1.379-.583 1.572-1.129.193-.545.193-1.011.136-1.11-.056-.099-.211-.155-.447-.273-.235-.117-1.379-.682-1.595-.757-.212-.08-.414-.051-.574.174-.226.315-.447.635-.626.828-.142.15-.372.17-.565.09-.26-.109-.984-.363-1.878-1.158-.692-.616-1.163-1.382-1.3-1.613-.136-.235-.013-.371.095-.498.118-.146.23-.25.348-.386.118-.136.184-.207.259-.367.08-.155.024-.315-.033-.432-.056-.118-.527-1.266-.72-1.731z"/></g></g></svg>